<svg width="31" height="31" viewBox="0 0 31 31" fill="none" xmlns="http://www.w3.org/2000/svg">
    <path d="M13.1149 3.24578C14.4519 1.97714 16.5481 1.97714 17.8851 3.24578C18.8689 4.17926 20.1961 4.66234 21.5498 4.57962C23.3895 4.4672 24.9952 5.81458 25.2039 7.64582C25.3575 8.99329 26.0637 10.2165 27.1539 11.0232C28.6354 12.1196 28.9994 14.1839 27.9822 15.7209C27.2337 16.8519 26.9885 18.2428 27.305 19.5616C27.7352 21.3538 26.6871 23.1691 24.9199 23.6927C23.6196 24.0779 22.5376 24.9858 21.9324 26.1995C21.11 27.8489 19.1402 28.5658 17.4499 27.831C16.2062 27.2902 14.7938 27.2902 13.5501 27.831C11.8598 28.5658 9.89004 27.8489 9.06756 26.1995C8.46237 24.9858 7.38039 24.0779 6.08007 23.6927C4.3129 23.1691 3.26482 21.3538 3.69499 19.5616C4.01151 18.2428 3.76625 16.8519 3.01778 15.7209C2.00059 14.1839 2.36458 12.1196 3.84611 11.0232C4.93625 10.2165 5.64246 8.99329 5.79606 7.64582C6.0048 5.81458 7.61054 4.4672 9.45022 4.57962C10.8039 4.66234 12.1311 4.17926 13.1149 3.24578Z" stroke="white" stroke-width="1.42567"/>
    <path d="M10.814 14.779L14.7791 19.8256L20.5465 9.37207" stroke="white" stroke-width="1.82353"/>
</svg>
