<?xml version="1.0" encoding="utf-8"?>
<!-- Generator: Adobe Illustrator 27.3.1, SVG Export Plug-In . SVG Version: 6.00 Build 0)  -->
<svg version="1.1" id="Layer_1" xmlns="http://www.w3.org/2000/svg" xmlns:xlink="http://www.w3.org/1999/xlink" x="0px" y="0px"
	 viewBox="0 0 538.2 351.9" style="enable-background:new 0 0 538.2 351.9;" xml:space="preserve">
<style type="text/css">
	.st0{fill:#015BBB;}
</style>
<g>
	<path class="st0" d="M40.1,114.6c3.4-0.4,6.6,0,9.4,2.3c1.2,1,2.3,2.3,3.4,3.5c2.2,2.6,4.8,4.3,8.4,4.2c1.1,0,2.3,0.3,3.4,0.5
		c2,0.3,3.8,0,5.4-1.4c0.6-0.6,0.9-0.9,0.4-1.6c-0.3-0.4-0.3-1-0.4-1.5c-0.6-3.1-1.8-5.8-4.7-7.6c-1.5-0.9-2.6-2.3-3.8-3.7
		c2.8-0.3,5.7-0.7,7.6,1.9c1.7,2.3,3,4.9,4.3,7.4c0.7,1.3,1.4,2.1,2.7,2.8c3.8,2.2,7.3,4.6,11,6.9c0.3,0.2,0.6,0.5,1.3,1.1
		c-0.4-2.6,0.9-4.8-0.6-6.9c-0.2-0.3-0.2-0.7-0.1-1.1c0.6-2.4,1.1-4.8,1.8-7.1c0.3-0.9,1-1.6,2-1.2c1.1,0.4,1.2,1.4,0.8,2.4
		c-0.2,0.5-0.4,1-0.7,1.4c-0.9,1.5-0.7,3-0.3,4.6c0.5,2.3,0.5,4.7,0.6,7.1c0.1,0.9-0.1,1.8,0.1,2.7c0.2,0.8,0.6,1.6,0.9,2.4
		c0.2,0.5,0.8,1.2,0.7,1.5c-0.7,1.4,0.3,2,1.2,2.4c2.3,1.2,4.6,2.4,7,3.4c3.1,1.2,6.3,2.1,9.5,3.1c2.4,0.7,4.8,1.5,7.3,1.9
		c1.3,0.2,2.7,0.1,4-0.2c2.1-0.5,3.9-0.1,5.8,0.8c8.3,4,16.3,8.6,23.6,14.3c2.8,2.2,5.9,3.1,9.5,2.8c6.2-0.5,12.4-0.5,18.5,1.2
		c1.2,0.3,2.5,0.3,3.7,0.2c3.6-0.6,6.9,0.4,10.3,1.6c1.5,0.5,3.2,0.6,4.7,1.1c2.4,0.7,5.1,1,7,2.5c4,3.2,8.4,5.2,12.9,7.3
		c3.8,1.8,7.6,3.8,11.5,5.5c3.2,1.3,6.6,2.5,9.9,3.3c8.6,2.2,13.7,7.9,16.7,15.9c0.3,0.7,0.5,1.4,1.1,2.2c1-2.4,2-4.8,3.1-7.1
		c0.2-0.4,0.4-1,0.8-1.1c1.3-0.4,1.2-1.3,1.1-2.4c-0.3-2.7-0.3-5.4-0.8-8.1c-0.6-3-1.2-6.1-2.6-8.8c-3.1-5.9-3.3-12.1-3.5-18.5
		c0-1.2,0.1-2.4,0.4-3.6c0.8-4.3-0.6-8-3-11.5c-1.9-2.7-4.8-3.4-7.8-3.8c-2.9-0.5-5.8-0.8-8.7-1.2c-3.4-0.5-6.3-1.8-8.7-4.3
		c-0.3-0.3-0.7-0.5-1.1-0.5c-8.1-0.4-16-2.7-24-3.8c-4.9-0.7-9.8-0.8-14.7-1.2c-0.6-0.1-1.3-0.1-1.8-0.4c-4.8-2.9-10.2-3.7-15.6-4.3
		c-5-0.5-10.1-0.9-15.1-1.7c-4.9-0.7-9.2-3-13.3-5.7c-3.1-2-6.4-3.3-10.1-3.6c-0.7-0.1-1.4-0.4-2.2-0.8c2.3-1.6,4.7-2.4,7.3-1.8
		c2,0.5,3.8,1.3,5.7,2.1c1.1,0.5,2.1,1.1,3.1,1.8c4.5,3.1,9.3,4.8,14.8,4.9c3.6,0.1,7.3,0.8,10.9,1.1c4.7,0.4,9.3,0.9,13.6,2.8
		c1.7,0.8,3.3,0.9,5.2,0.7c3.4-0.4,6.9-0.4,10.5-0.6c-3.2-5.6-5-11.8-5.9-18.6c0.6,0.3,1,0.4,1.3,0.6s0.5,0.5,0.8,0.8
		c2.4,3.2,4.9,6.4,7.1,9.8c2,3.1,4.6,5.7,7.4,8c0.7,0.5,1.6,0.9,2.4,1c3.1,0.5,6.3,0.9,9.5,1.3c1.3,0.2,2.2-0.2,2.9-1.7
		c0.8-1.8,2.2-3.4,3.4-5c1.5-1.9,3.1-3.6,4.6-5.4c0.6-0.7,1-1.1,2-0.7s1.5,1,1.3,2c-0.1,0.7-0.5,1.4-0.9,2c-1.4,2.4-2.9,4.7-4.3,7.1
		c-0.9,1.6-0.6,2.6,0.9,3.4c1.6,0.8,3.4,1.6,5.1,1.7c6,0.3,11.9,1.2,17.5,3.2c0.1,0,0.2,0,0.2-0.1c-1.2-3.1-2.6-6.3-3.7-9.4
		c-1.4-3.9-1.1-7.8,0.3-11.7c1.1-2.9,3-5.1,6-6.2c0.8-0.3,1.5-0.6,2.3-1c2.7-1.4,4.4-3.5,4.6-6.6c0.1-1.1,0.6-1.3,1.6-1
		c0.1,2.4-0.3,4.8-1.4,7c-0.3,0.6-1,1.1-1.5,1.5c-1,0.7-2.2,1.3-3.2,2c-3.6,2.6-4.4,8.1-1.1,10.9c7.4,6.5,9.7,15.3,12,24.4
		c0.4-0.3,1-0.6,1.5-1c1.2-1.1,2.4-2.2,3.6-3.3c2.4-2.4,5-4.6,8-6.2c3.7-2,4.7-5.8,3.8-10c-0.5-2.6-1.7-4.4-3.5-6.1
		c-0.9-0.8-1.4-2.1-1.8-3.2c-0.3-0.9,0.2-1.4,1.2-1.2c2.2,0.4,4.1,1.3,5.6,3c2.9,3.3,5,7,4.9,11.5c0,0.4,0,0.7,0,1.3
		c0.6-0.3,1-0.5,1.5-0.7c5.6-2.6,11.4-4.9,17.6-5.6c2.8-0.3,5.7,0,8.5-0.2c6.5-0.4,12.9-0.9,19.4-1.5c4-0.4,7.5-2.2,10.9-4.3
		c1.9-1.2,3.8-2.4,5.8-3.5c1-0.5,2.1-0.7,3.2-1c0.1,0.1,0.3,0.3,0.4,0.4c-0.5,1.5-0.9,3-1.4,4.7c1.3-0.2,2.6-0.6,3.9-0.7
		c2.8-0.1,5.7-0.3,8.4,0c3.7,0.4,6.9-0.6,9.8-2.8c2.7-2.1,5.4-4.3,8.1-6.4c0.5-0.4,1.1-0.7,1.6-1.1c0.2,0.1,0.3,0.2,0.5,0.3
		c-0.2,0.7-0.3,1.5-0.7,2c-3.2,3.1-6.4,6.3-9.8,9.2c-2.1,1.8-4.8,2.4-7.7,2.1c-6.1-0.7-12,0.8-17.9,2c-1.9,0.4-4,1.1-5.6,2.2
		c-5.3,3.5-11.3,4.5-17.4,5.4c-5.7,0.8-11.4,1.3-17.1,2c-1.2,0.1-2.3,0.6-3.4,1c-6.5,2.8-13,5.7-19.5,8.6c-0.6,0.3-1.2,0.9-1.6,1.5
		c-2.2,3.9-5.1,7.1-8.4,10.1c-1.9,1.8-3.9,3.5-5.8,5.3c-3.7,3.6-4.9,7.9-3.5,13s2.7,10.2,3.7,15.4c0.7,3.3,0.9,6.7,1.3,10.2
		c0.2-0.2,0.4-0.4,0.5-0.7c3.2-5.2,6.2-10.6,9.5-15.7c1.1-1.7,2.7-3.3,4.3-4.4c4.1-2.9,8.7-4.8,13.9-4.6c5.1,0.2,9.8-1.1,14.4-3.2
		c7.2-3.3,14.5-6.5,22.4-8c4.5-0.9,9.1-1,13.5-1.8c6.3-1.2,12.6-2.7,18.8-4.3c3.6-0.9,6.6-2.9,9.2-5.5c4.1-4,8.7-7.2,14.1-9.1
		c1.9-0.7,4-0.9,5.9-1.4s3.9-0.9,5.6-1.8c3.5-1.9,7.2-2.7,11.2-2.6c4.7,0.2,9.4,0.5,14.1,0.7c2.2,0.1,4.4-0.1,6.4-0.2
		c-1-3.9-2-7.4-2.7-10.9c-0.3-1.8-0.1-3.8,0.1-5.6c0.3-1.9,1.4-3,2.8-3.1c1.8-0.2,2.7,1,3.3,2.4c0.9,2.1,1.5,4.3,2.3,6.5
		c0.7,2,1.4,3.9,2.2,5.9c1.2,2.9,3.5,4.6,6.6,4.8c7.5,0.7,14.8,0,21.6-3.9c4.1-2.4,4.9-4.1,4.1-8.8c-0.2-1.3-0.5-2.7-0.5-4
		c0-1.8,0.9-3.2,2.1-3.5c1.3-0.3,3.4,0.9,3.9,2.3c2.3,5.9,2.3,15.3-6.2,20.2c-3.9,2.2-8.1,3.2-12.5,3.4c-12.3,0.5-24.7,0.9-37,1.3
		c-1.4,0-2.8,0-4.2-0.3c-6-1.1-11.6,1-17.3,2c-2.1,0.4-4.1,0.9-6.1,1.4c-3.5,0.9-6.6,2.6-9.4,4.8c-1.8,1.5-3.6,2.9-5.3,4.5
		c-4.8,4.6-10.5,7.3-16.9,8.7c-3,0.6-5.9,1.4-8.7,2.5c-4.2,1.6-8.7,1.8-13,2.6c-6.4,1.1-12.2,3.7-17.9,6.6c-2.4,1.2-4.8,2.4-7.1,3.7
		c-5,2.7-10.3,4.2-16,4c-6.6-0.3-11.4,2.6-15,7.8c-1.9,2.7-3.7,5.5-5.3,8.4c-3.5,6.6-7.7,12.7-12.2,18.6c-1,1.2-1.5,2.9-2,4.4
		c-2.5,9.1-3.8,18.3-3.9,27.7c0,4.6,1.5,8.8,2.8,13.1c0.8,2.6,2,4.5,4.5,5.5c1.1,0.5,1.2,1.3,1.3,2.4c0.1,1.8,0.5,3.5,0.8,5.3
		c0,0.1,0.1,0.3,0.2,0.4c1.9,1.5,3.8,3,5.8,4.4c1.8,1.3,3.7,2.6,5.6,3.7c1,0.6,2.2,1,3.3,1c2,0,3.8,0.5,5.5,1.4
		c1.4,0.8,3,1.5,4.7,1.7c4.7,0.8,8.8,2.8,12.5,5.9c2.4,1.9,5.1,3.5,7.6,5.3c0.5,0.4,1.1,0.8,1.3,1.3c1.1,2.2,3,3.1,5.1,3.8
		c1.5,0.5,2.9,1.4,4.3,2.1c0.8,0.4,1.6,0.8,2.4,0.9c1.2,0.2,2.5,0.2,3.8,0.2c1.3,0.1,2.5,0.3,2.9,1.7c0.5,1.2,0.3,2.5-0.6,3.5
		c-0.1,0.2-0.3,0.3-0.4,0.5c0.9,1.5,1.9,2.9,2.7,4.4c0.8,1.6,0.2,3.1-1.3,4c-1.6,0.9-2.9,0.6-3.9-0.9c-1.1-1.6-2.2-3.3-3.5-4.8
		c-2.7-3.1-6.1-5.1-10.2-5.9c-1.1-0.2-2-1.1-3.2-1.9c0.4,2.4-0.4,4.7,1.2,6.8c1.3,1.8,2.8,3.3,4.7,4.6c1.4,0.9,2.1,3,2.8,4.7
		c0.2,0.5-0.5,1.5-1.1,2c-0.3,0.3-1.3,0.1-1.8-0.2c-1.2-0.7-2.4-1.5-2.5-3.2c0-0.3-0.4-0.6-0.7-0.7c-3-1.3-6.1-5.9-6.2-9.1
		c0-5.2-3-8.9-7.8-10.7c-0.5-0.2-1.1-0.4-1.6-0.7c-3.1-2.2-4-2.5-8.2-2c0,1.9-0.1,3.9,0,5.9c0,0.4,0.5,0.9,0.9,1.1
		c1,0.7,2.3,1.2,3.2,2c0.8,0.7,1.4,1.7,2,2.6c0.2,0.3,0.3,0.8,0.6,1.1c2,1.8,1.7,4.2,1.3,6.4c-0.3,1.5-1.8,2.5-3.4,2.4
		s-2.2-1.2-2.4-2.6c-0.2-1.4-0.1-2.8-1.4-3.9c-0.5-0.4-1-1-1.6-1.4c-3.7-1.9-6-4.6-5.7-9.1c0.1-1.5,0.2-3,0.1-4.5
		c0-0.6-0.5-1.3-0.9-1.7c-0.8-0.7-1.8-1.1-2.6-1.8c-1.3-1.2-2.4-2.4-4.4-2.1c-0.7,0.1-1.4-0.7-2.1-1.2c-0.5-0.4-1-0.8-1.5-1.3
		c-0.1,0.1-0.3,0.2-0.4,0.3c0.8,2,1.4,4.2,2.4,6.1c0.9,1.7-0.1,4.3-2.2,4.6c-2.4,0.4-5-1.7-5.3-4.3c-0.1-0.6,0-1.3-0.1-1.9
		c-0.3-1.7-1.2-2.4-2.9-2.6c-0.7-0.1-1.3-0.3-1.9-0.6c-1.2-0.5-2.1-0.1-1.9,1.2c0.4,2.8-1.5,3.6-3.4,4.6c-2,1-4,1.5-6.1,0.1
		c-1.3-0.8-1.9-2.2-1.5-3.6c0.5-1.5,1.5-2.3,3-2.3c1.6,0.1,2.5-0.3,2.4-2.1c0-0.5,0.4-1.1,0.6-1.6c0.3-0.5,0.6-1,0.8-1.5
		c1.7-4.3,1.3-4.8-2.4-7.4c-4-2.7-8.3-3-12.8-2.9c-0.2,0-0.4,0.1-0.7,0.2c1.2,1.4,2.2,2.7,3.4,3.9c0.3,0.3,1.2,0.3,1.8,0.2
		c1.8-0.3,2.6,1.1,3,2.6s-0.4,3-1.9,3.5c-3.2,1.3-6.6,0.3-8.3-2.7c-1-1.7-2.2-2.3-4-2.5c-0.4,0-0.9,0.1-1.3,0.3
		c-0.8,0.4-1.6,1-2.5,1.3c-1.1,0.5-1.6,1.1-2.1,2.2c-0.6,1.4-1.6,2.8-2.8,3.9c-2.1,2-4.2,4.3-7.4,4.7c-1.5,0.2-3-0.5-3.7-1.8
		c-0.7-1.4-0.2-2.6,0.8-3.5c1.1-0.9,2.3-1.6,3.5-2.3c2.2-1.3,3.4-3.3,4.4-6c-0.9,0.5-1.5,0.7-2,1c-3.9,2.8-8.3,4.6-12.8,6.1
		c-0.4,0.1-3,4.8-2.9,5.1c0.3,0.6,0.7,1.2,1.1,1.7c0.8,0.9,1.9,1.6,2.6,2.5c0.6,0.7,1.1,1.7,1.2,2.6c0.2,2.2-1.5,3.4-3.6,2.8
		c-2.3-0.6-3.9-2.2-5.2-4.1c-0.8-1.2-1.6-2.4-2.4-3.5c-0.2,0-0.4,0-0.6,0c-0.6,1.2-1.3,2.3-1.6,3.5c-0.6,2.1-1,4.4-1.5,6.5
		c-0.1,0.3-0.2,0.6-0.4,0.8c-2.2,2.1-2.7,5-4.1,7.5c-0.8,1.4-2.4,2.4-3.7,2c-1.4-0.4-2.4-1.9-2.4-3.5c0-2.6,1.4-4.7,2.7-6.7
		c1.2-1.8,2.6-3.2,2-6c-0.7,0.5-1.6,0.8-2,1.3c-0.8,1.1-1.8,1.4-3.1,1.3c-0.6-0.1-1.3,0.2-1.9,0.4c-1,0.3-2,0.6-2.9,0.9
		c-0.4,0.1-0.8,0.4-0.9,0.6c-0.5,1.3-1.6,1.7-2.8,2c-0.4,0.1-1,0.3-1.1,0.6c-0.7,1.8-1.6,3.6-2,5.4c-0.6,2.5-0.8,5-1.1,7.5
		c-0.1,1-0.4,1.9-1.7,2c-0.9,0.1-1.5,0.7-1.4,1.7c0,0.5-0.1,0.9-0.2,1.4c-0.4,1.3-1.4,1.9-2.4,1.5c-1.6-0.6-2.2-1.7-1.8-3.1
		c0.4-1.2,0.8-2.4,1.3-3.6c0.2-0.4,0.4-1,0.7-1.2c2.3-0.9,1.7-2.9,1.7-4.9c-0.6,0.2-1.1,0.4-1.6,0.5c-1.7,0.3-3.4,0.8-5.1,0.9
		c-2,0.1-3.4-1.3-3.6-3c-0.1-1.5,1.1-2.9,3-3.3c0.5-0.1,0.9-0.2,1.4-0.2c2.3-0.1,4-1.3,5.4-3.1c1.7-2.2,3.4-4.4,5.1-6.6
		c1.1-1.4,2.5-1.9,4.3-1.9c1.7,0,3.5-0.4,5.2-0.7c0.3,0,0.5-0.3,0.7-0.6c1.3-1.3,2.4-2.8,3.8-4c0.7-0.7,1.8-0.9,2.7-1.4
		c0.7-0.4,1.6-0.6,2.2-1.1c2.3-1.9,4.4-4,7.5-4.7c0.3-0.1,0.7-0.3,1-0.5c4.5-3.2,8.9-6.6,13.6-9.7c2-1.3,4.3-2.2,6.6-3.2
		c1.3-0.5,2.1-1.2,2.8-2.5c1.1-1.9,2.6-3.5,3.8-5.3c1.5-2.3,2.8-4.6,4.2-6.9c0.2-0.4,0.3-0.9,0.7-1c1.6-0.9,1.6-2.2,1.6-3.8
		c0.1-5.9,0.8-11.8,2.7-17.5c0.3-0.7,0.3-1.5,0.5-2.3c0.3-1.3,0.1-2.3-0.9-3.3c-2.7-2.8-3.8-6.4-4.6-10.2c-0.4-1.7-0.2-3.7-2-4.9
		c-0.2-0.1-0.1-0.7-0.1-1c0-1,0-2.1-0.1-3.1c-0.1-2.9-1.3-5.4-3.6-7.1c-1.8-1.3-3.8-2.4-5.8-3.2c-3.3-1.4-6.7-2.4-9.9-3.8
		c-4.9-2.1-9.9-4.3-14.7-6.8c-3.9-2.1-7.6-4.6-11.3-7.1c-1.8-1.2-3.7-2-5.9-2.4c-2-0.3-3.8-1.3-5.8-1.9c-0.6-0.2-1.3-0.5-2-0.4
		c-5.4,0.6-10.5-0.9-15.7-1.7c-3.2-0.5-6.3-1.3-9.5-1.9c-0.6-0.1-1.1-0.1-1.7-0.1c-5.8,0.5-10.8-1.2-15.2-5.1
		c-6.2-5.4-13.4-9.3-20.5-13.4c-2.3-1.3-5.4-1.4-8.1-2.1c-5.6-1.4-11.3-2.6-16.9-4.3c-6.7-2-11.5-6.6-15.1-12.3
		c-2.3-3.6-5.6-5.9-9.2-7.8c-0.4-0.2-0.8-0.3-1.1-0.5c-1-0.9-1.8-0.7-2.5,0.3c-0.9,1.1-2,1.1-3.4,0.9c-2.8-0.4-5.6-0.5-8.3-0.9
		c-1.7-0.2-3.4-0.6-5-1.1c-3.3-1.2-6-3.1-8.3-5.7c-1.2-1.3-2.9-2.2-4.4-3.2c-0.5-0.3-1.1-0.5-1.7-0.7
		C40,114.9,40.1,114.7,40.1,114.6z"/>
	<path class="st0" d="M182.6,81.2c-2.7,1.8-5,3.4-7.3,5c-6.8,4.4-14,7.7-22,9c-7.4,1.2-14.4,0-20.5-4.3C127.4,87.2,122.3,83,117,79
		c-0.7-0.5-1.3-1-2.1-1.7c-1.6,4.1-3.2,8.1-4.8,12c-1.5,3.9-3,7.8-4.5,11.7c-0.4,1-1,1.6-2.2,1.7c-1.8,0.1-3.6,0.2-5.3-1
		c-1.8-1.3-2-2-0.3-3.5c3.8-3.2,6.1-7.4,8-11.9c1-2.4,1.8-4.9,2.4-7.4c0.8-3.5,0.1-6.8-2-9.7c-1.8-2.4-3.9-4.5-5.9-6.7
		c-0.8-0.9-1.5-1.8-2.3-2.7c2-1.6,6.1-1.9,8-0.4c1.5,1.1,2.8,2.5,4.2,3.8c5.4,5.4,10.5,10.9,16.1,16.1c4.6,4.2,9.8,7.7,15.3,10.6
		c4.2,2.2,8.6,2.8,13.2,1.5c9.6-2.7,17.7-7.6,24.4-15c2.6-2.9,4.4-6.3,5.7-10c1-3,3.1-3.6,5.6-1.7c0.4,0.3,0.6,1.3,0.5,1.9
		c-0.7,4-1.5,8-2.1,12c-0.9,6-0.1,11.7,3.6,16.9c2.3,3.2,2,3.5-1.7,4.8c-3.4,1.1-4.5,0.3-5.2-3.5C184.6,91.7,183.6,86.6,182.6,81.2z
		"/>
	<path class="st0" d="M368.8,81.3c-2.5,1.7-4.8,3.3-7.2,4.9c-6.8,4.4-14,7.7-22,9c-7.4,1.2-14.4,0-20.5-4.3
		c-5.5-3.8-10.7-8.1-16-12.1c-0.6-0.4-1.1-0.9-1.8-1.4c-1.7,4.2-3.3,8.2-4.9,12.2c-1.5,3.8-3,7.7-4.5,11.5c-0.4,1-1,1.6-2.2,1.7
		c-2.1,0.2-4.1,0-5.8-1.3c-1.1-0.8-1.2-1.7-0.3-2.6c1-1.1,2.2-2,3.1-3.1c3.8-4.9,6.6-10.4,7.9-16.6c0.7-3.5,0.2-7-2.1-9.8
		c-1.9-2.5-4.3-4.7-6.4-7.1c-0.6-0.7-1.1-1.6-1.6-2.4c1-0.3,1.9-0.7,2.9-1c2.7-0.7,4.9,0.3,6.8,2.3c3.4,3.6,6.8,7.2,10.3,10.8
		c6.8,7.2,14.4,13.3,23.2,18.1c4.4,2.4,8.8,2.9,13.6,1.6c9.7-2.8,17.9-7.8,24.5-15.4c2.5-2.8,4.2-6.1,5.4-9.7c1-2.9,3.2-3.6,5.6-1.6
		c0.4,0.3,0.5,1.4,0.4,2c-0.6,4-1.5,8-2.1,12c-0.9,6.1,0,11.7,3.7,16.9c2.1,2.9,1.8,3.4-1.6,4.5c-3.7,1.2-4.8,0.5-5.5-3.4
		c-0.8-4.6-1.7-9.2-2.5-13.7C369.2,82.5,369,82,368.8,81.3z"/>
	<path class="st0" d="M274.4,301.9c-2.6,10.4-3,20.8-4.2,31.1c-0.3,2.6-0.5,5.3-0.5,8c-0.1,3,1.5,4.1,4.4,3.1
		c0.9-0.3,1.8-0.7,3.3-1.3c-0.3,0.9-0.4,1.6-0.7,2c-0.5,0.5-1.2,0.9-1.8,1.2c-3.5,1.7-7,3.4-10.6,5.2c-0.4,0.2-0.8,0.3-1.3,0.5
		c0.4-3.8,0.8-7.4,1.2-11.4c-1,1.4-1.8,2.5-2.6,3.5c-3.1,3.8-6.6,7.1-11.7,7.9c-5.7,1-10.4-1.8-12.5-7.2c-1.8-4.9-1.8-10.1-1.4-15.2
		c0.6-7.5,2.6-14.7,5.6-21.9c-5,0-10-0.4-14.2,2.6c-3.3,2.4-3.5,6-2.8,9.7c0.1,0.3,0.1,0.7,0.3,0.9c1.4,2.1,0.3,3.4-1.2,4.6
		c-1.2,0.9-2.2,2-3.3,3.1c-1.8-5-1.2-13.8,4.8-18.8c4.7-4,10.2-5.9,16.2-6.3c2.4-0.2,4.9,0,7.6,0c-0.3,0.6-0.5,1-0.6,1.5
		c-4.5,10.3-6.9,21-6.2,32.3c0.1,1.5,0.4,3,0.8,4.5c1.8,5.9,7.1,8.2,12.7,5.5c2.1-1,3.5-2.6,4.8-4.4c2.9-4.5,4-9.6,4.7-14.8
		c0.9-7,1.6-14,2.4-21.1c0.1-1,0.5-1.5,1.3-1.9C270.5,303.9,272.3,302.9,274.4,301.9z"/>
	<path class="st0" d="M514.5,79.4c1.4,1,2.8,2,4.2,3.1c5.6,4.3,11.2,8.6,16.8,13c0.2,0.2,0.6,0.3,0.8,0.6c0.7,0.8,2.6,1.2,2,2.4
		c-0.7,1.2-2.3,2.1-3.7,2.6c-1.6,0.5-3.2-0.3-4.5-1.5C524,94.3,518,89.2,512,84.1c-1.3-1.1-2.8-1.7-4.9-1.6c0,1.9,0,3.9,0,5.8
		c0,3.7,0,7.4,0,11.2c0,1.9-0.7,2.6-2.6,2.3c-1.8-0.4-3.6-1-5.4-1.6c-0.9-0.3-1.3-1.1-0.5-1.8c1.9-1.6,2.2-3.8,2.2-6
		c0.1-8.3,0.1-16.6,0-25c0-1.3-0.4-2.3-1.8-2.9s-1.3-2.3,0.2-3.2c1.6-0.9,3.4-1.7,5.1-2.3c4.5-1.6,9.1-2.9,13.9-2.5
		c5.6,0.5,9.3,3.6,9.9,8.2c0.7,5.6-2.2,10.7-7.5,12.6C518.6,78.1,516.4,78.8,514.5,79.4z M507.1,73.7c0.1,0,0.1,0,0.2,0
		c0,0.3,0,0.6,0,0.9c0,0.5,0,1,0,1.6c0,1.7,0.7,2.3,2.2,1.7c2.7-1.2,5.4-2.5,7.9-4c1.2-0.7,2.1-1.9,2.9-3c2.7-4.1,0.6-9.4-4-10.2
		c-2.4-0.4-4.7,0-6.7,1.4c-0.6,0.4-1.2,1.2-1.3,1.9C507.7,67.3,507.4,70.5,507.1,73.7z"/>
	<path class="st0" d="M16.3,79.4c1.5,1.2,3.2,2.5,4.8,3.8c5.6,4.3,11.3,8.7,17,12.9c2.5,1.9,2.8,2.2-0.2,4.3
		c-1.8,1.2-4.2,0.8-6.2-0.9c-6-5.1-11.9-10.2-17.9-15.3c-1.3-1.1-2.8-1.8-4.8-1.7c-0.1,1.1-0.2,2.3-0.2,3.4c0,4.6,0,9.1,0,13.7
		c0,1.9-0.6,2.5-2.5,2.2c-1.8-0.3-3.6-0.9-5.4-1.5c-1.1-0.4-1.3-1.3-0.4-2.1c1.7-1.5,1.8-3.4,2-5.4c0.7-8.6,0.7-17.2,0-25.9
		c-0.1-1-0.4-1.7-1.4-2.2c-0.5-0.2-1.3-1.1-1.2-1.5c0.1-0.7,0.7-1.7,1.3-1.9c3.4-1.4,6.8-2.7,10.3-3.8c3.4-1,6.9-1.5,10.4-0.8
		c7.7,1.6,10.9,9.8,6.3,16.2c-1.5,2.1-3.4,3.6-5.9,4.5C20.1,78.1,18,78.8,16.3,79.4z M9,73.2h0.1c0,1.1,0.1,2.2,0,3.3
		c-0.1,1.4,0.8,1.9,1.8,1.6c4.6-1.3,8.7-3.3,11.4-7.5c1.5-2.3,1.3-4.9,0-7.2c-1.2-2.2-3.4-2.9-5.8-2.7c-1.4,0.1-2.8,0.5-4.1,0.9
		c-1.6,0.5-2.5,1.6-2.6,3.3C9.5,67.7,9.2,70.4,9,73.2z"/>
	<path class="st0" d="M417.5,76c2.2,1,4.3,1.7,6.2,2.9c2.3,1.5,4.6,3.2,6.5,5.1c2.7,2.8,2.4,6-0.4,8.7c-0.4,0.4-0.9,0.9-1.4,1.2
		c-7.6,4.9-15.9,7.5-25,7.8c-1.2,0-2.5-0.2-3.7-0.5c-0.9-0.2-1.3-1-0.5-1.6c1.8-1.4,2.1-3.4,2.4-5.5c1.2-8.2,1.4-16.5,0.9-24.7
		c-0.1-2-0.9-3.5-3-4.1c-0.4-0.1-0.8-0.4-1.1-0.6c-0.8-0.6-0.9-1.2,0-1.7s1.8-1,2.8-1.4c2.8-1.2,5.6-2.3,8.5-3.3
		c1.3-0.5,2.8-0.8,4.1-0.8c3.5,0.2,7,0.6,10.4,1.2c2.4,0.4,4.4,1.9,4.8,4.5c0.4,2.9,0.2,5.9-2.5,7.8c-2.3,1.6-5,2.8-7.5,4.2
		C418.5,75.5,418,75.7,417.5,76z M407.6,89c0.1,1.7,0.2,3.8,0.3,6c0,0.9,0.5,1.5,1.5,1.5c4.7-0.1,9.2-0.8,13.1-3.5
		c3.1-2.1,3.3-4.5,0.7-7.2c-2.7-2.8-6.1-4.7-9.8-6.1c-2.9-1.1-5.3,0.4-5.5,3.5C407.8,85,407.7,86.8,407.6,89z M408.6,68.6
		c0,1.4,0,2.8,0,4.2c0,2.4,1.5,3.5,3.7,2.6c3.7-1.5,6.8-4,9-7.4c1.2-1.9,1-3.6-0.7-5.1c-2.8-2.5-6.2-3.1-9.8-2.4
		c-1.5,0.3-2.2,1.3-2.2,2.8C408.6,65.2,408.6,66.9,408.6,68.6z"/>
	<path class="st0" d="M458.5,79.1c4.1-1.2,17.7-1.3,19.3-0.1c-1.4,1.5-2.9,2.9-5.1,3c-3.8,0.2-7.5,0.2-11.3,0.4
		c-0.9,0-1.9,0.1-2.8,0.2c-0.5,7.4,2.7,15.2,12.2,17c1.9,0.4,3.9,0.5,5.9,0.6c0.8,0.1,1.6-0.1,2.3,0.1c0.7,0.2,1.3,0.8,1.9,1.2
		c-0.5,0.5-0.9,1.2-1.6,1.5c-0.8,0.4-1.7,0.5-2.6,0.5c-5.3,0.3-10.5,0-15.4-1.9c-5.6-2.2-9.1-6.2-9.9-12.3c-1-6.8-0.7-13.5,2-19.9
		c3.2-7.7,9.2-11.4,17.3-11.8c2.1-0.1,4.2,0.1,6.3,0.3c1.1,0.1,2.1,0.6,2,2c-0.1,1.5-1.2,1.5-2.3,1.5c-2.5,0.1-5,0-7.5,0.3
		c-3.3,0.4-5.8,2.3-7.5,5.1C459.5,70.4,458.8,74.6,458.5,79.1z"/>
	<path class="st0" d="M60.7,82.5c-0.7,9.6,4.9,16.3,14.1,17.4c1.9,0.2,3.8,0.2,5.6,0.4c0.7,0,1.4,0.1,2,0.3c0.9,0.4,1,1.4,0.2,2
		c-0.6,0.4-1.3,0.7-2,0.8c-5.9,0.7-11.7,0.4-17.3-1.9c-5.7-2.3-9-6.5-9.7-12.6c-0.8-6.6-0.5-13.2,2.1-19.4
		c3.2-7.7,9.2-11.4,17.3-11.9c2.1-0.1,4.2,0.1,6.3,0.3c1.2,0.1,2.2,0.7,2,2.1c-0.2,1.4-1.3,1.3-2.3,1.3c-2.5,0.1-4.9,0-7.4,0.2
		c-3.5,0.4-6.1,2.4-7.8,5.4c-2.1,3.8-2.8,7.9-3.1,12.2c4.1-1.2,17.7-1.3,19.3-0.1c-1.4,1.5-2.9,2.8-5.1,3c-3.8,0.2-7.5,0.2-11.3,0.4
		C62.6,82.4,61.7,82.5,60.7,82.5z"/>
	<path class="st0" d="M220.1,78.7c2.3-0.2,4.5-0.5,6.7-0.5c3.6-0.1,7.1,0,10.7,0c0.6,0,1.1,0.4,1.6,0.6c-0.3,0.4-0.5,1-0.9,1.3
		c-1.4,1.1-2.9,1.9-4.8,1.9c-3.4,0-6.8,0.2-10.2,0.3c-1,0-2,0-2.9,0c-1.3,6.1,2.6,13.4,8.3,16c3.2,1.4,6.6,1.8,10.1,1.9
		c1,0,2,0.1,2.9,0.3c0.4,0.1,0.8,0.7,0.9,1.1c0.1,0.3-0.3,0.9-0.7,1.1c-0.6,0.3-1.3,0.6-2.1,0.7c-5.3,0.6-10.5,0.3-15.5-1.3
		c-6.6-2.2-10.6-6.6-11.3-13.7c-0.6-6.3-0.4-12.4,1.9-18.4c3.2-8,9.2-12,17.7-12.4c2-0.1,4,0.1,5.9,0.3c1.1,0.1,2.2,0.6,2.1,2
		c-0.1,1.4-1.3,1.4-2.3,1.4c-2.5,0-4.9,0-7.4,0.2c-3.6,0.4-6.2,2.5-7.9,5.6C221.1,70.8,220.4,74.8,220.1,78.7z"/>
	<path class="st0" d="M276.5,37.6c-0.2,2.2-0.3,4.4-0.7,6.5c-1,5.2-4.4,8.8-8.5,11.8c-0.7,0.5-1.9,0.2-2.9,0.3
		c-2.6,0.4-4.5-0.7-6.3-2.4c-6.8-6.2-8.6-14-6.5-22.6c1.3-5.3,3.7-10.3,5.6-15.4c1.9-5,3.9-10,5.8-15c0.2-0.4,0.7-0.8,1.1-0.9
		c0.8-0.1,1.5,0.2,1.6,1.3c0.3,2,0.5,4,1.1,5.8c1.7,4.8,3.4,9.5,5.4,14.2c1.9,4.5,3.8,9.1,4,14.1c0,0.7,0,1.5,0,2.2
		C276.4,37.6,276.5,37.6,276.5,37.6z M264.1,54.4c3.4-3.1,6.7-6.3,7.6-11c0.7-3.6,0.7-7.2-0.1-10.7c-1.5-6.8-4.6-13-7.5-19.2
		c-0.2-0.4-0.4-0.7-0.8-1.4c-1.2,2.7-2.3,5.2-3.4,7.7c-2.5,5.8-4.2,11.7-4.3,18.1C255.6,45.1,259.3,49.9,264.1,54.4z"/>
	<path class="st0" d="M302,318c-1.5,1.4-2.8,2.7-3.8,3.6c-2.3-0.6-4.2-1.3-6.2-1.6c-1.3-0.2-2.8,0.1-3.6,1.5c-0.8,1.4-0.5,2.8,0.4,4
		c1.8,2.3,3.6,4.5,5.4,6.7c1.3,1.5,2.6,3,3.7,4.7c1.9,2.7,1.5,5.6-0.2,8.2c-4,6-13.4,8.1-19.8,4.4c1.5-1.2,3-2.4,4.6-3.7
		c2.2,1.8,4.7,2.8,7.5,2.6c3.7-0.2,5.7-3.3,4-6.6c-1-2-2.5-3.7-4-5.4c-1.5-1.9-3.3-3.5-4.8-5.4c-2.6-3.3-2.3-7.4,0.8-10.3
		c4.1-3.8,9-4.2,14.1-3C300.9,317.6,301.3,317.7,302,318z"/>
</g>
</svg>
