<svg width="15" height="15" viewBox="0 0 15 15" fill="none" xmlns="http://www.w3.org/2000/svg">
    <path d="M7.5 8.96802C7.29204 8.96802 7.11785 8.89756 6.97741 8.75663C6.83649 8.6162 6.76603 8.44201 6.76603 8.23405C6.76603 8.02609 6.83649 7.85165 6.97741 7.71073C7.11785 7.5703 7.29204 7.50008 7.5 7.50008C7.70796 7.50008 7.8824 7.5703 8.02332 7.71073C8.16375 7.85165 8.23397 8.02609 8.23397 8.23405C8.23397 8.44201 8.16375 8.6162 8.02332 8.75663C7.8824 8.89756 7.70796 8.96802 7.5 8.96802ZM4.56413 8.96802C4.35617 8.96802 4.18173 8.89756 4.04081 8.75663C3.90038 8.6162 3.83016 8.44201 3.83016 8.23405C3.83016 8.02609 3.90038 7.85165 4.04081 7.71073C4.18173 7.5703 4.35617 7.50008 4.56413 7.50008C4.77209 7.50008 4.94653 7.5703 5.08745 7.71073C5.22788 7.85165 5.2981 8.02609 5.2981 8.23405C5.2981 8.44201 5.22788 8.6162 5.08745 8.75663C4.94653 8.89756 4.77209 8.96802 4.56413 8.96802ZM10.4359 8.96802C10.2279 8.96802 10.0537 8.89756 9.91329 8.75663C9.77236 8.6162 9.7019 8.44201 9.7019 8.23405C9.7019 8.02609 9.77236 7.85165 9.91329 7.71073C10.0537 7.5703 10.2279 7.50008 10.4359 7.50008C10.6438 7.50008 10.818 7.5703 10.9585 7.71073C11.0994 7.85165 11.1698 8.02609 11.1698 8.23405C11.1698 8.44201 11.0994 8.6162 10.9585 8.75663C10.818 8.89756 10.6438 8.96802 10.4359 8.96802ZM7.5 11.9039C7.29204 11.9039 7.11785 11.8334 6.97741 11.6925C6.83649 11.5521 6.76603 11.3779 6.76603 11.1699C6.76603 10.962 6.83649 10.7878 6.97741 10.6473C7.11785 10.5064 7.29204 10.436 7.5 10.436C7.70796 10.436 7.8824 10.5064 8.02332 10.6473C8.16375 10.7878 8.23397 10.962 8.23397 11.1699C8.23397 11.3779 8.16375 11.5521 8.02332 11.6925C7.8824 11.8334 7.70796 11.9039 7.5 11.9039ZM4.56413 11.9039C4.35617 11.9039 4.18173 11.8334 4.04081 11.6925C3.90038 11.5521 3.83016 11.3779 3.83016 11.1699C3.83016 10.962 3.90038 10.7878 4.04081 10.6473C4.18173 10.5064 4.35617 10.436 4.56413 10.436C4.77209 10.436 4.94653 10.5064 5.08745 10.6473C5.22788 10.7878 5.2981 10.962 5.2981 11.1699C5.2981 11.3779 5.22788 11.5521 5.08745 11.6925C4.94653 11.8334 4.77209 11.9039 4.56413 11.9039ZM10.4359 11.9039C10.2279 11.9039 10.0537 11.8334 9.91329 11.6925C9.77236 11.5521 9.7019 11.3779 9.7019 11.1699C9.7019 10.962 9.77236 10.7878 9.91329 10.6473C10.0537 10.5064 10.2279 10.436 10.4359 10.436C10.6438 10.436 10.818 10.5064 10.9585 10.6473C11.0994 10.7878 11.1698 10.962 11.1698 11.1699C11.1698 11.3779 11.0994 11.5521 10.9585 11.6925C10.818 11.8334 10.6438 11.9039 10.4359 11.9039ZM2.36222 14.8398C1.95854 14.8398 1.61284 14.6961 1.32513 14.4089C1.0379 14.1212 0.894287 13.7755 0.894287 13.3718V3.09627C0.894287 2.69259 1.0379 2.34714 1.32513 2.05991C1.61284 1.77219 1.95854 1.62834 2.36222 1.62834H3.09619V0.894368C3.09619 0.686411 3.16641 0.511971 3.30684 0.371049C3.44776 0.230617 3.6222 0.1604 3.83016 0.1604C4.03812 0.1604 4.21256 0.230617 4.35348 0.371049C4.49391 0.511971 4.56413 0.686411 4.56413 0.894368V1.62834H10.4359V0.894368C10.4359 0.686411 10.5063 0.511971 10.6473 0.371049C10.7877 0.230617 10.9619 0.1604 11.1698 0.1604C11.3778 0.1604 11.552 0.230617 11.6924 0.371049C11.8333 0.511971 11.9038 0.686411 11.9038 0.894368V1.62834H12.6378C13.0415 1.62834 13.3872 1.77219 13.6749 2.05991C13.9621 2.34714 14.1057 2.69259 14.1057 3.09627V13.3718C14.1057 13.7755 13.9621 14.1212 13.6749 14.4089C13.3872 14.6961 13.0415 14.8398 12.6378 14.8398H2.36222ZM2.36222 13.3718H12.6378V6.03215H2.36222V13.3718Z" fill="white"/>
</svg>
