<svg width="248" height="62" viewBox="0 0 248 62" fill="none" xmlns="http://www.w3.org/2000/svg">
<mask id="mask0_131_306" style="mask-type:alpha" maskUnits="userSpaceOnUse" x="0" y="0" width="248" height="62">
<path fill-rule="evenodd" clip-rule="evenodd" d="M23.829 1.624C19.9345 8.62632 18.2298 14.3942 18.2298 14.3942C18.2298 14.3942 6.0838 16.7635 0.314453 13.0375L36.7437 59.7632L103.226 61.0631V61.8666L123.772 61.4649L144.318 61.8666V61.0631L210.8 59.7632L247.23 13.0375C241.46 16.7635 229.314 14.3942 229.314 14.3942C229.314 14.3942 227.61 8.62632 223.715 1.624C220.86 -3.50998 157.421 10.9156 123.772 18.979C90.1226 10.9156 26.6844 -3.50998 23.829 1.624Z" fill="#015BBB"/>
</mask>
<g mask="url(#mask0_131_306)">
<path d="M241.814 0.133545C241.814 5.85526 239.209 11.729 233.638 17.5417C228.04 23.3819 219.678 28.8921 208.921 33.639C187.422 43.1264 157.337 49.1335 123.814 49.1335C90.2911 49.1335 60.2056 43.1264 38.7068 33.639C27.9499 28.8921 19.5875 23.3819 13.9899 17.5417C8.41864 11.729 5.81396 5.85526 5.81396 0.133545C5.81396 -5.58817 8.41864 -11.4619 13.9899 -17.2746C19.5875 -23.1148 27.9499 -28.625 38.7068 -33.3719C60.2056 -42.8593 90.2911 -48.8665 123.814 -48.8665C157.337 -48.8665 187.422 -42.8593 208.921 -33.3719C219.678 -28.625 228.04 -23.1148 233.638 -17.2746C239.209 -11.4619 241.814 -5.58817 241.814 0.133545Z" stroke="#FED403" stroke-width="11"/>
<path d="M231.814 -3.07764C231.814 1.57364 229.585 6.49654 224.526 11.5019C219.447 16.527 211.818 21.3055 201.947 25.4363C182.23 33.6881 154.609 38.9224 123.814 38.9224C93.0191 38.9224 65.3981 33.6881 45.6807 25.4363C35.8103 21.3055 28.1805 16.527 23.1018 11.5019C18.0431 6.49654 15.814 1.57363 15.814 -3.07764C15.814 -7.7289 18.0431 -12.6518 23.1018 -17.6571C28.1805 -22.6823 35.8103 -27.4608 45.6807 -31.5916C65.3981 -39.8434 93.0191 -45.0776 123.814 -45.0776C154.609 -45.0776 182.23 -39.8434 201.947 -31.5916C211.818 -27.4608 219.447 -22.6823 224.526 -17.6571C229.585 -12.6518 231.814 -7.7289 231.814 -3.07764Z" stroke="#015BBB" stroke-width="11"/>
</g>
</svg>
